# WaveFront *.obj file (generated by CINEMA 4D)

mtllib ./torch.mtl

v 146.85653686523438 308.80206298828125 40.87871932983398
v -146.85653686523438 308.80206298828125 40.87871932983398
v -146.85653686523438 308.80206298828125 -239.52433776855469
v 146.85653686523438 308.80206298828125 -239.52433776855469
v -113.37572479248047 226.72811889648438 40.87871932983398
v 113.37572479248047 226.72811889648438 40.87871932983398
v 113.37572479248047 226.72811889648438 -175.89527893066406
v -113.37572479248047 226.72811889648438 -175.89527893066406
# 8 vertices

vn 0 1 0
vn -0.92592167854309 -0.37771558761597 0
vn 0 -0.61270254850388 -0.79031360149384
vn 0 0 1
vn 0.92592161893845 -0.37771567702293 0
vn 0 -1 0
# 6 normals

vt 0.79999995231628 0.5 0
vt 0.5 0.80000001192093 0
vt 0.19999998807907 0.5 0
vt 0.5 0.20000004768372 0
vt 0.15440335869789 0.61399155855179 0
vt 0.38600844144821 0.84559667110443 0
vt 0.38600844144821 0.15440344810486 0
vt 0.15440335869789 0.38600850105286 0
vt 0.61399155855179 0.84559667110443 0
vt 0.84559661149979 0.61399155855179 0
vt 0.84559661149979 0.38600850105286 0
vt 0.61399155855179 0.15440344810486 0
vt 0 1 0
vt 1 1 0
vt 1 0 0
vt 0 0 0
# 16 texture coordinates

g Pyramid.2
usemtl default
f 4/4/1 3/3/1 2/2/1 1/1/1
f 5/6/2 2/2/2 3/3/2 8/5/2
f 8/8/3 3/3/3 4/4/3 7/7/3
f 6/10/4 1/1/4 2/2/4 5/9/4
f 7/12/5 4/4/5 1/1/5 6/11/5
f 6/16/6 5/15/6 8/14/6 7/13/6

v 105 200.92387390136719 40.87871932983398
v -105 200.92387390136719 40.87871932983398
v -105 200.92387390136719 -161.21517944335938
v 105 200.92387390136719 -161.21517944335938
v -81.061767578125 132.5289306640625 40.87871932983398
v 81.061767578125 132.5289306640625 40.87871932983398
v 81.061767578125 132.5289306640625 -115.04859924316406
v -81.061767578125 132.5289306640625 -115.04859924316406
# 8 vertices

vn -0.94385832548141 -0.33035045862198 0
vn 0 -0.55947279930115 -0.82884871959686
vn 0.94385838508606 -0.33035042881966 0
vn 0 -1 0
# 4 normals

# 0 texture coordinate

g Pyramid.1
usemtl default
f 12/4/1 11/3/1 10/2/1 9/1/1
f 13/6/7 10/2/7 11/3/7 16/5/7
f 16/8/8 11/3/8 12/4/8 15/7/8
f 14/10/4 9/1/4 10/2/4 13/9/4
f 15/12/9 12/4/9 9/1/9 14/11/9
f 14/16/10 13/15/10 16/14/10 15/13/10

v 70 100 40.87871932983398
v -70 100 40.87871932983398
v -70 100 -92.813720703125
v 70 100 -92.813720703125
v 0.00000000000001 -100 40.87871932983398
# 5 vertices

vn -0.94385838508606 -0.33035042881966 0
vn 0 0 0
vn 0 -0.55573320388794 -0.83136069774628
vn 0.94385838508606 -0.33035042881966 0
# 4 normals

# 0 texture coordinate

g Pyramid
usemtl default
f 20/4/1 19/3/1 18/2/1 17/1/1
f 18/2/11 19/3/11 21/13/11
f 19/3/13 20/4/13 21/16/13
f 20/4/14 17/1/14 21/15/14
f 17/1/4 18/2/4 21/14/4

